<?xml version="1.0" encoding="utf-8"?>
<!-- Generator: Adobe Illustrator 25.3.1, SVG Export Plug-In . SVG Version: 6.00 Build 0)  -->
<!-- 810 262-->
<svg version="1.1" xmlns="http://www.w3.org/2000/svg" xmlns:xlink="http://www.w3.org/1999/xlink" width="500"
	height="500">
	<g transform="translate(-634,-261)">
		<path d="M1134,688c0,3.67,0,7.33,0,11c-0.28,1.75-0.75,3.5-0.81,5.26c-0.5,13.15-4.15,25.14-12.67,35.42
		c-11.39,13.75-26.23,19.63-43.81,19.89c-9.91,0.15-19.81,0.94-29.71,1.44c-36.33,0-72.67,0-109,0c-1.94-0.27-3.88-0.77-5.81-0.78
		c-41.96-0.11-83.93-0.12-125.89-0.23c-38.79-0.11-77.59-0.15-116.38-0.55c-23.76-0.24-40.81-11.65-51.15-32.89
		c-2.21-4.55-3.21-9.68-4.77-14.55c0-134.67,0-269.33,0-404c0.31-0.94,0.75-1.85,0.93-2.81c2.71-14.5,10.7-25.47,22.4-34.1
		c7.69-5.68,16.58-8.09,25.68-10.09c133.33,0,266.67,0,400,0c1.09,0.33,2.15,0.79,3.26,0.96c23.67,3.56,41.8,20.91,46.26,44.33
		c0.55,2.89,0.99,5.81,1.48,8.71c0,4.33,0,8.67,0,13c-0.28,1.95-0.8,3.9-0.8,5.84c-0.04,116.3-0.04,232.6,0,348.9
		C1133.2,684.5,1133.72,686.25,1134,688z M815.3,548.71c0.31,0.55,0.62,1.11,0.93,1.66c-1.6,2.18-2.98,4.57-4.83,6.51
		c-36.17,38.01-72.44,75.94-108.59,113.97c-9.64,10.14-19.1,20.46-28.3,31c-1.85,2.12-3.78,6.57-2.8,8.18
		c1.49,2.44,5.49,3.38,8.48,4.86c0.54,0.27,1.31,0.04,1.98,0.04c23.66,0,47.33-0.09,70.99,0.07c5.43,0.0504,9.67-1.78,13.26-5.69
		c22.45-24.39,44.94-48.74,67.4-73.12c13.77-14.95,27.47-29.96,41.29-44.86c6.71-7.24,10.95-7.11,17.72,0.22
		c35.49,38.42,71.06,76.78,106.39,115.35c5.53,6.04,11.77,8.63,19.79,8.52c16.64-0.23,33.29-0.04,49.94-0.08
		c5.99-0.01,12.05,0.32,17.95-0.48c3.1-0.42,7.23-2.27,8.46-4.71c1-1.98-1.04-6.18-2.75-8.71c-2.68-3.98-6.08-7.5-9.39-11.01
		c-25.1-26.69-50.22-53.38-75.41-79.99c-17.18-18.14-34.52-36.13-51.71-54.27c-1.69-1.79-2.83-4.09-4.83-7.05
		c4.12-0.51,6.89-1.13,9.65-1.14c17.33-0.09,34.66-0.04,51.99-0.05c13.5,0,27,0.09,40.49-0.04c8.1-0.08,13.56-5.93,13.18-13.72
		c-0.38-7.77-6.29-12.6-15.62-12.6c-45.83-0.02-91.65-0.01-137.48-0.01c-9.43,0-14.17-3.7-14.19-11.01
		c-0.02-7.03,4.28-10.12,14.14-10.12c44.66,0,89.32,0,133.98-0.01c2,0,4.02,0.09,5.99-0.18c6.71-0.91,12.35-6.14,13.09-11.98
		c0.77-6.04-3.03-12.09-9.4-14.28c-2.29-0.78-4.89-0.9-7.35-0.9c-29.66-0.01-59.32,0.08-88.98,0.1c-2.87,0-5.74-0.32-9.87-0.56
		c2.42-2.82,3.84-4.6,5.39-6.26c24.84-26.48,49.63-53.02,74.57-79.4c20.37-21.54,40.96-42.88,61.41-64.35
		c2.74-2.87,5.88-5.83,4.06-10.44c-1.88-4.78-6.09-4.98-10.42-4.98c-22.16,0.04-44.33,0.39-66.48-0.18
		c-8.37-0.22-14.04,2.73-19.51,8.63c-35.21,38-70.65,75.78-106.01,113.65c-9.33,9.99-11.2,10.08-20.38,0.04
		c-11.91-13.03-23.59-26.27-35.56-39.24c-22.82-24.73-45.8-49.32-68.65-74.01c-5.2-5.62-11.12-9.43-19.09-9.3
		c-11.66,0.19-23.32,0.36-34.97,0.4c-12.16,0.04-24.33-0.31-36.48,0.05c-2.51,0.07-6.24,2-7.09,4.05c-0.97,2.31,0.03,6.04,1.34,8.55
		c1.49,2.86,4.2,5.12,6.49,7.54c44.43,46.93,88.89,93.85,133.32,140.78c1.16,1.23,2.2,2.58,4.28,5.05c-3.47,0-5.4,0-7.32,0
		c-31.66,0-63.32-0.02-94.99,0.02c-7.83,0.01-13.7,5.33-14.16,12.59c-0.47,7.33,4.61,13.32,12.36,14.39
		c2.13,0.29,4.32,0.21,6.49,0.21c44.83,0.01,89.65,0.01,134.48,0.01c1.67,0,3.35-0.11,4.99,0.08c4.92,0.57,7.84,3.38,8.69,8.24
		c1.31,7.48-3.86,12.77-12.7,12.79c-27.66,0.05-55.32,0.02-82.99,0.02c-19.16,0-38.33,0.04-57.49-0.02
		c-5.47-0.02-9.8,1.8-12.27,6.91c-4.65,9.61,1.5,19.43,12.32,19.46c30.99,0.07,61.99,0.01,92.99,0.06
		C810.14,547.97,812.72,548.45,815.3,548.71z" />
	</g>
</svg>